<svg id="Layer_1" enable-background="new 0 0 512 512" height="512" viewBox="0 0 512 512" width="512" xmlns="http://www.w3.org/2000/svg"><g><path d="m256 208c35.346 0 64 28.654 64 64v160c0 35.346-28.654 64-64 64-35.346 0-64-28.654-64-64v-160c0-35.346 28.654-64 64-64z" fill="#acebe2"/><circle cx="256" cy="80" fill="#acebe2" r="64"/><path d="m320 272v160c0 35.35-28.65 64-64 64-6.99 0-13.71-1.12-20-3.19 25.55-8.39 44-32.44 44-60.81v-160c0-28.37-18.45-52.42-44-60.81 6.29-2.07 13.01-3.19 20-3.19 35.35 0 64 28.65 64 64z" fill="#98d7ce"/><path d="m320 80c0 35.35-28.65 64-64 64-6.99 0-13.71-1.12-20-3.19 25.55-8.39 44-32.44 44-60.81s-18.45-52.42-44-60.81c6.29-2.07 13.01-3.19 20-3.19 35.35 0 64 28.65 64 64z" fill="#98d7ce"/><g><path d="m256 512c-44.112 0-80-35.888-80-80v-160c0-44.112 35.888-80 80-80s80 35.888 80 80v160c0 44.112-35.888 80-80 80zm0-288c-26.467 0-48 21.533-48 48v160c0 26.467 21.533 48 48 48 26.468 0 48-21.533 48-48v-160c0-26.467-21.532-48-48-48z"/></g><g><path d="m256 160c-44.112 0-80-35.888-80-80s35.888-80 80-80 80 35.888 80 80-35.888 80-80 80zm0-128c-26.467 0-48 21.533-48 48s21.533 48 48 48 48-21.533 48-48-21.533-48-48-48z"/></g></g></svg>