<svg id="Layer_1" enable-background="new 0 0 512 512" height="512" viewBox="0 0 512 512" width="512" xmlns="http://www.w3.org/2000/svg"><g><path d="m128 208v144h256v-144c0-70.692-57.307-128-128-128-70.693 0-128 57.307-128 128z" fill="#f8e9d2"/><path d="m128 352h256c17.673 0 32 14.327 32 32 0 17.673-14.327 32-32 32h-256c-17.673 0-32-14.327-32-32 0-17.673 14.327-32 32-32z" fill="#f3d4b7"/><path d="m291.77 416c7.61 8.49 12.23 19.7 12.23 32 0 26.51-21.49 48-48 48s-48-21.49-48-48c0-12.3 4.62-23.51 12.23-32z" fill="#f8e9d2"/><path d="m384 208v144h-32v-144c0-65.27-48.86-119.13-112-127.01 5.24-.65 10.58-.99 16-.99 70.69 0 128 57.31 128 128z" fill="#e4d5be"/><path d="m416 384c0 8.84-3.58 16.84-9.37 22.63s-13.79 9.37-22.63 9.37h-32c8.84 0 16.84-3.58 22.63-9.37s9.37-13.79 9.37-22.63c0-17.67-14.33-32-32-32h32c17.67 0 32 14.33 32 32z" fill="#e1c3a7"/><path d="m304 448c0 26.51-21.49 48-48 48-5.61 0-11-.96-16-2.73 18.64-6.59 32-24.37 32-45.27 0-12.3-4.62-23.51-12.23-32h32c7.61 8.49 12.23 19.7 12.23 32z" fill="#e4d5be"/><path d="m400 338.752v-130.752c0-73.994-56.101-135.121-128-143.106v-24.894c0-4.411 3.589-8 8-8s8 3.589 8 8c0 8.836 7.163 16 16 16s16-7.164 16-16c0-22.056-17.944-40-40-40s-40 17.944-40 40v24.894c-71.899 7.985-128 69.112-128 143.106v130.752c-18.622 6.605-32 24.39-32 45.248 0 26.467 21.533 48 48 48h66.043c-1.337 5.184-2.043 10.552-2.043 16 0 35.29 28.71 64 64 64s64-28.71 64-64c0-5.448-.706-10.816-2.043-16h66.043c26.467 0 48-21.533 48-48 0-20.858-13.378-38.643-32-45.248zm-256-130.752c0-61.757 50.243-112 112-112s112 50.243 112 112v128h-224zm144 240c0 17.645-14.355 32-32 32s-32-14.355-32-32c0-5.67 1.494-11.176 4.284-16h55.432c2.79 4.824 4.284 10.33 4.284 16zm96-48h-92.23-71.54-92.23c-8.822 0-16-7.178-16-16s7.178-16 16-16h256c8.822 0 16 7.178 16 16s-7.178 16-16 16z"/></g></svg>