<svg id="Capa_1" enable-background="new 0 0 512.643 512.643" height="512" viewBox="0 0 512.643 512.643" width="512" xmlns="http://www.w3.org/2000/svg"><g><g><path d="m487.261 449.85h-266.301c-9.875 0-17.881-8.005-17.881-17.881v-404.574c0-9.875 8.005-17.881 17.881-17.881h266.301c9.875 0 17.881 8.005 17.881 17.881v404.574c0 9.875-8.005 17.881-17.881 17.881z" fill="#efedef"/><g><path d="m291.683 44.638h-88.603v387.331c0 9.875 8.005 17.881 17.881 17.881h108.602v-367.331c0-20.887-16.994-37.881-37.88-37.881z" fill="#e5e1e5"/><path d="m348.361 264.742-58.177-58.004c-16.705-16.655-16.705-43.659 0-60.314 16.705-16.655 43.789-16.655 60.494 0l2.02 2.014 4.898-4.49c16.877-15.472 42.988-14.926 59.199 1.238l1.242 1.239c16.705 16.655 16.705 43.659 0 60.314l-58.177 58.004c-3.175 3.165-8.323 3.165-11.499-.001z" fill="#fd8087"/><path d="m329.563 134.924c-13.751-2.983-28.688.843-39.378 11.501-16.705 16.655-16.705 43.659 0 60.314l39.378 39.261z" fill="#fe646f"/><path d="m291.682 504.974h-266.301c-9.875 0-17.881-8.005-17.881-17.881v-404.574c0-9.875 8.005-17.881 17.881-17.881h266.301c9.875 0 17.881 8.005 17.881 17.881v404.574c0 9.875-8.006 17.881-17.881 17.881z" fill="#f9f7f8"/><path d="m120.341 473.529c-34.157 0-61.847-27.69-61.847-61.847v-347.043h-33.113c-9.875 0-17.881 8.005-17.881 17.881v404.574c0 9.875 8.005 17.881 17.881 17.881h266.301c9.875 0 17.881-8.005 17.881-17.881v-13.564h-189.222z" fill="#efedef"/><g><g id="XMLID_169_"><g><path d="m208.134 245.315c17.65 4.49 29.66 21 28.56 39.24-1.13 18.68-16.02 33.95-34.63 35.54-12.09 1.03-23.67-3.55-31.73-12.56-3-3.36-7.31-5.29-11.8-5.29-4.5 0-8.8 1.93-11.81 5.29-8.05 9.01-19.62 13.59-31.72 12.56-18.62-1.59-33.51-16.86-34.63-35.54-1.1-18.24 10.91-34.75 28.56-39.24 7.49-1.91 12.54-9.16 11.74-16.88-.13-1.28-.2-2.6-.2-3.9 0-20.98 17.07-38.05 38.06-38.05 20.98 0 38.05 17.07 38.05 38.05 0 1.3-.06 2.62-.2 3.9-.06.54-.08 1.08-.08 1.61 0 7.1 4.85 13.49 11.83 15.27z" fill="#aa9ea9"/></g></g></g></g></g><g><path d="m291.682 57.138h-207.734c-4.143 0-7.5 3.358-7.5 7.5s3.357 7.5 7.5 7.5h207.733c5.724 0 10.381 4.657 10.381 10.381v404.574c0 5.724-4.657 10.381-10.381 10.381h-266.3c-5.724 0-10.381-4.657-10.381-10.381v-40.937c0-4.142-3.357-7.5-7.5-7.5s-7.5 3.358-7.5 7.5v40.937c0 13.995 11.386 25.381 25.381 25.381h266.301c13.995 0 25.381-11.386 25.381-25.381v-404.574c0-13.995-11.386-25.381-25.381-25.381z"/><path d="m7.5 421.694c4.143 0 7.5-3.358 7.5-7.5v-331.675c0-5.724 4.657-10.381 10.381-10.381h26.604c4.143 0 7.5-3.358 7.5-7.5s-3.357-7.5-7.5-7.5h-26.604c-13.995 0-25.381 11.386-25.381 25.381v331.675c0 4.142 3.357 7.5 7.5 7.5z"/><path d="m487.262.169h-266.301c-13.995 0-25.381 11.386-25.381 25.381v9.089c0 4.142 3.357 7.5 7.5 7.5s7.5-3.358 7.5-7.5v-9.089c0-5.724 4.657-10.381 10.381-10.381h266.301c5.724 0 10.381 4.657 10.381 10.381v40.017c0 4.142 3.357 7.5 7.5 7.5s7.5-3.358 7.5-7.5v-40.017c0-13.996-11.386-25.381-25.381-25.381z"/><path d="m505.143 90.029c-4.143 0-7.5 3.358-7.5 7.5v332.595c0 5.724-4.657 10.381-10.381 10.381h-147.699c-4.143 0-7.5 3.358-7.5 7.5s3.357 7.5 7.5 7.5h147.699c13.995 0 25.381-11.386 25.381-25.381v-332.595c0-4.143-3.358-7.5-7.5-7.5z"/><path d="m105.23 230.779c-24.615 6.265-41.367 29.262-39.832 54.68 1.572 26.054 22.349 47.369 48.329 49.58 1.562.133 3.115.199 4.661.199 11.975-.001 23.36-3.967 32.643-11.265v33.774c0 4.142 3.357 7.5 7.5 7.5s7.5-3.358 7.5-7.5v-33.757c10.478 8.237 23.645 12.214 37.305 11.049 25.979-2.211 46.756-23.525 48.329-49.58 1.535-25.418-15.217-48.415-39.831-54.68h-.001c-.338-.086-.565-.428-.526-.798.186-1.802.279-3.633.279-5.442 0-29.254-23.8-53.055-53.055-53.055s-53.055 23.8-53.055 53.055c0 1.814.095 3.646.281 5.446.039.366-.189.708-.527.794zm3.701 14.536c7.495-1.908 12.546-9.163 11.747-16.876-.134-1.289-.201-2.601-.201-3.901 0-20.983 17.071-38.055 38.055-38.055s38.055 17.071 38.055 38.055c0 1.298-.067 2.612-.2 3.901-.799 7.712 4.252 14.967 11.747 16.875 17.65 4.493 29.661 20.996 28.56 39.24-1.128 18.676-16.015 33.954-34.628 35.538-12.095 1.032-23.674-3.547-31.729-12.559-3.005-3.362-7.308-5.29-11.804-5.29-4.497 0-8.8 1.928-11.805 5.29-8.056 9.012-19.623 13.592-31.729 12.559-18.614-1.584-33.501-16.862-34.628-35.538-1.101-18.244 10.909-34.746 28.56-39.239z"/><path d="m356.922 255.317c-1.549 1.55-4.072 1.55-5.621 0l-6.435-6.435c-2.93-2.929-7.678-2.929-10.607 0s-2.929 7.678 0 10.606l6.435 6.435c3.7 3.7 8.559 5.549 13.418 5.549 4.858 0 9.719-1.85 13.418-5.549l54.232-54.232c9.229-9.23 14.313-21.502 14.313-34.555s-5.084-25.325-14.313-34.555-21.502-14.313-34.555-14.313c-12.149 0-23.622 4.404-32.594 12.455-3.511-3.236-7.466-5.933-11.774-8.024-3.725-1.809-8.213-.254-10.022 3.471-1.809 3.727-.255 8.213 3.472 10.023 3.233 1.57 6.18 3.631 8.758 6.126l1.046 1.012c4.772 4.615 12.471 4.551 17.167-.143 6.396-6.397 14.901-9.919 23.948-9.919s17.552 3.522 23.948 9.919c6.397 6.397 9.92 14.902 9.92 23.949 0 9.046-3.522 17.551-9.92 23.948z"/></g></g></svg>